<svg width="186" height="240" viewBox="0 0 186 196" fill="none" xmlns="http://www.w3.org/2000/svg">
<style>
.heartbeat {
	-webkit-animation: heartbeat 1.5s ease-in-out infinite both;
	        animation: heartbeat 1.5s ease-in-out infinite both;
}
.slide-top {
	-webkit-animation: slide-top 2s ease-in-out infinite alternate forwards;
	        animation: slide-top 2s ease-in-out infinite alternate forwards;
}
@keyframes heartbeat {
  from {
    -webkit-transform: scale(1);
            transform: scale(1);
    -webkit-transform-origin: center center;
            transform-origin: center center;
    -webkit-animation-timing-function: ease-out;
            animation-timing-function: ease-out;
  }
  10% {
    -webkit-transform: scale(0.91);
            transform: scale(0.91);
    -webkit-animation-timing-function: ease-in;
            animation-timing-function: ease-in;
  }
  17% {
    -webkit-transform: scale(0.98);
            transform: scale(0.98);
    -webkit-animation-timing-function: ease-out;
            animation-timing-function: ease-out;
  }
  33% {
    -webkit-transform: scale(0.87);
            transform: scale(0.87);
    -webkit-animation-timing-function: ease-in;
            animation-timing-function: ease-in;
  }
  45% {
    -webkit-transform: scale(1);
            transform: scale(1);
    -webkit-animation-timing-function: ease-out;
            animation-timing-function: ease-out;
  }
}
@keyframes slide-top {
  0% {
    -webkit-transform: translateY(0);
            transform: translateY(0);
  }
  100% {
    -webkit-transform: translateY(-20px);
            transform: translateY(-20px);
  }
}

</style>

<path d="M22.5 82H170.5L185.5 106L8.99991 106.5L22.5 82Z" fill="#ED7A33"/>
<rect x="49" y="89" width="94" height="7" fill="#512F15"/>
<rect x="15" y="128" width="164" height="61" fill="#EF7834"/>
<rect x="12" y="189" width="170" height="7" fill="#BA5F2B"/>
<path d="M97.5 179.288L94.2375 176.318C82.65 165.81 75 158.857 75 150.375C75 143.423 80.445 138 87.375 138C91.29 138 95.0475 139.822 97.5 142.68C99.9525 139.822 103.71 138 107.625 138C114.555 138 120 143.423 120 150.375C120 158.857 112.35 165.81 100.762 176.318L97.5 179.288Z" fill="#F91218"/>
<path  class="heartbeat" d="M15.9256 59.309L14.0774 58.9056C7.52216 57.4881 3.19107 56.5466 1.37258 53.3968C-0.11791 50.8152 0.741442 47.6344 3.31469 46.1488C4.76841 45.3095 6.55435 45.1807 8.07761 45.7159C8.37568 44.1291 9.3802 42.6469 10.8339 41.8076C13.4072 40.3219 16.5915 41.1681 18.082 43.7497C19.9005 46.8994 18.5504 51.121 16.5003 57.5068L15.9256 59.309Z" fill="#F91218"/>
<path class="heartbeat"  d="M91.7372 29.2346L90.7988 29.0297C87.47 28.3099 85.2706 27.8318 84.3472 26.2323C83.5903 24.9214 84.0267 23.3062 85.3334 22.5517C86.0716 22.1255 86.9785 22.0601 87.752 22.3319C87.9034 21.5262 88.4135 20.7735 89.1517 20.3473C90.4584 19.5928 92.0754 20.0225 92.8323 21.3335C93.7557 22.9329 93.0701 25.0766 92.0291 28.3194L91.7372 29.2346Z" fill="#F91218"/>
<path  class="heartbeat"  d="M168.656 30.7707L167.797 29.0855C164.739 23.1167 162.722 19.1699 164.005 15.767C165.058 12.9778 168.063 11.6265 170.843 12.6752C172.413 13.2677 173.645 14.5675 174.196 16.085C175.613 15.3098 177.396 15.1473 178.966 15.7397C181.746 16.7885 183.11 19.7878 182.058 22.5769C180.774 25.9799 176.653 27.6113 170.415 30.073L168.656 30.7707Z" fill="#F91218"/>
<g  class="slide-top" clip-path="url(#clip0_0_1)">
<path d="M98 127C115.121 127 129 113.121 129 96C129 78.8792 115.121 65 98 65C80.8792 65 67 78.8792 67 96C67 113.121 80.8792 127 98 127Z" fill="#FBF450"/>
<path d="M98 121.655C112.064 121.655 123.464 110.169 123.464 95.9999C123.464 81.8309 112.064 70.3447 98 70.3447C83.9365 70.3447 72.5358 81.8309 72.5358 95.9999C72.5358 110.169 83.9365 121.655 98 121.655Z" fill="#FFC605"/>
<path d="M96.2212 110.674V81.5203H98.0889V110.674H96.2212ZM102.507 90.2664C102.371 89.1124 101.817 88.2166 100.845 87.5788C99.873 86.9411 98.681 86.6222 97.2689 86.6222C96.2364 86.6222 95.3329 86.7892 94.5585 87.1232C93.7917 87.4573 93.1919 87.9166 92.7592 88.5012C92.334 89.0859 92.1215 89.7501 92.1215 90.4941C92.1215 91.1167 92.2695 91.6519 92.5656 92.0999C92.8693 92.5402 93.2565 92.9085 93.7272 93.2045C94.1978 93.493 94.6914 93.7322 95.2077 93.922C95.7239 94.1042 96.1984 94.2523 96.6311 94.3661L98.9999 95.0039C99.6072 95.1633 100.283 95.3835 101.027 95.6644C101.779 95.9453 102.496 96.3286 103.179 96.8146C103.87 97.2929 104.44 97.9078 104.887 98.6594C105.336 99.4111 105.559 100.334 105.559 101.427C105.559 102.687 105.229 103.826 104.569 104.843C103.916 105.861 102.959 106.669 101.699 107.269C100.446 107.869 98.924 108.169 97.1323 108.169C95.462 108.169 94.0157 107.899 92.7933 107.36C91.5787 106.821 90.622 106.069 89.9236 105.105C89.2327 104.141 88.8417 103.021 88.7506 101.746H91.6659C91.7419 102.626 92.038 103.355 92.5542 103.932C93.0781 104.502 93.7386 104.927 94.5357 105.208C95.3405 105.481 96.206 105.618 97.1323 105.618C98.2103 105.618 99.1783 105.443 100.036 105.094C100.894 104.737 101.574 104.243 102.075 103.613C102.576 102.976 102.826 102.231 102.826 101.381C102.826 100.607 102.61 99.9767 102.177 99.4907C101.744 99.0049 101.175 98.6101 100.469 98.3064C99.7629 98.0027 98.9999 97.737 98.18 97.5092L95.3101 96.6893C93.4881 96.1654 92.0456 95.4177 90.9826 94.4459C89.9197 93.4741 89.3884 92.2023 89.3884 90.6308C89.3884 89.325 89.7413 88.1861 90.4474 87.2143C91.161 86.235 92.1176 85.4758 93.3172 84.9368C94.5243 84.3901 95.872 84.1168 97.36 84.1168C98.8632 84.1168 100.199 84.3864 101.369 84.9253C102.538 85.4568 103.464 86.1857 104.147 87.1119C104.838 88.0381 105.203 89.0896 105.241 90.2664H102.507Z" fill="#FBF450"/>
</g>
<g class="slide-top" clip-path="url(#clip1_0_1)">
<path d="M54 59C61.732 59 68 52.732 68 45C68 37.268 61.732 31 54 31C46.268 31 40 37.268 40 45C40 52.732 46.268 59 54 59Z" fill="#FBF450"/>
<path d="M54 56.5862C60.3513 56.5862 65.5 51.3989 65.5 45C65.5 38.6011 60.3513 33.4138 54 33.4138C47.6487 33.4138 42.5 38.6011 42.5 45C42.5 51.3989 47.6487 56.5862 54 56.5862Z" fill="#FFC605"/>
<path d="M53.1967 51.6269V38.4607H54.0402V51.6269H53.1967ZM56.0356 42.4106C55.9739 41.8894 55.7236 41.4848 55.2848 41.1968C54.8459 40.9088 54.3076 40.7648 53.6698 40.7648C53.2035 40.7648 52.7955 40.8402 52.4458 40.9911C52.0995 41.1419 51.8286 41.3494 51.6332 41.6134C51.4412 41.8774 51.3452 42.1774 51.3452 42.5134C51.3452 42.7946 51.4121 43.0363 51.5458 43.2386C51.6829 43.4375 51.8578 43.6038 52.0704 43.7374C52.2829 43.8677 52.5058 43.9758 52.739 44.0615C52.9721 44.1438 53.1864 44.2106 53.3818 44.2621L54.4516 44.5501C54.7259 44.622 55.031 44.7215 55.367 44.8484C55.7065 44.9752 56.0305 45.1483 56.3391 45.3678C56.6511 45.5838 56.9082 45.8615 57.1105 46.201C57.3128 46.5404 57.414 46.957 57.414 47.4507C57.414 48.0199 57.2648 48.5342 56.9665 48.9936C56.6717 49.4531 56.2397 49.8182 55.6705 50.0891C55.1047 50.36 54.4173 50.4954 53.6081 50.4954C52.8538 50.4954 52.2007 50.3737 51.6486 50.1302C51.1001 49.8868 50.668 49.5473 50.3526 49.1119C50.0406 48.6765 49.864 48.1708 49.8229 47.5947H51.1395C51.1738 47.9925 51.3075 48.3216 51.5406 48.5822C51.7772 48.8393 52.0755 49.0314 52.4355 49.1582C52.7989 49.2816 53.1898 49.3434 53.6081 49.3434C54.095 49.3434 54.5321 49.2645 54.9196 49.1068C55.3071 48.9456 55.6139 48.7227 55.8402 48.4382C56.0665 48.1502 56.1796 47.8141 56.1796 47.4302C56.1796 47.0804 56.0819 46.7959 55.8865 46.5764C55.691 46.357 55.4339 46.1787 55.115 46.0415C54.7962 45.9044 54.4516 45.7844 54.0813 45.6815L52.7852 45.3112C51.9624 45.0746 51.3109 44.7369 50.8309 44.2981C50.3509 43.8592 50.1109 43.2849 50.1109 42.5751C50.1109 41.9854 50.2703 41.4711 50.5892 41.0322C50.9114 40.5899 51.3435 40.247 51.8852 40.0036C52.4304 39.7568 53.039 39.6333 53.711 39.6333C54.3899 39.6333 54.9933 39.7551 55.5213 39.9985C56.0494 40.2385 56.4677 40.5676 56.7762 40.986C57.0882 41.4042 57.2528 41.8791 57.27 42.4106H56.0356Z" fill="#FBF450"/>
</g>
<g  class="slide-top" clip-path="url(#clip2_0_1)">
<path d="M129 24C135.627 24 141 18.6274 141 12C141 5.37258 135.627 0 129 0C122.373 0 117 5.37258 117 12C117 18.6274 122.373 24 129 24Z" fill="#FBF450"/>
<path d="M129 21.9309C134.444 21.9309 138.857 17.4846 138.857 11.9999C138.857 6.51512 134.444 2.06885 129 2.06885C123.556 2.06885 119.143 6.51512 119.143 11.9999C119.143 17.4846 123.556 21.9309 129 21.9309Z" fill="#FFC605"/>
<path d="M128.311 17.6803V6.39502H129.034V17.6803H128.311ZM130.745 9.78063C130.692 9.3339 130.477 8.98714 130.101 8.74027C129.725 8.49341 129.264 8.36997 128.717 8.36997C128.317 8.36997 127.968 8.43461 127.668 8.56392C127.371 8.69323 127.139 8.87103 126.971 9.09734C126.807 9.32364 126.724 9.58077 126.724 9.86877C126.724 10.1098 126.782 10.317 126.896 10.4904C127.014 10.6608 127.164 10.8034 127.346 10.9179C127.528 11.0296 127.719 11.1222 127.919 11.1957C128.119 11.2662 128.303 11.3235 128.47 11.3676L129.387 11.6145C129.622 11.6762 129.884 11.7614 130.172 11.8702C130.463 11.9789 130.74 12.1273 131.005 12.3154C131.272 12.5005 131.493 12.7386 131.666 13.0295C131.84 13.3205 131.926 13.6776 131.926 14.1008C131.926 14.5886 131.798 15.0294 131.543 15.4232C131.29 15.817 130.92 16.13 130.432 16.3622C129.947 16.5944 129.358 16.7105 128.664 16.7105C128.018 16.7105 127.458 16.6062 126.984 16.3975C126.514 16.1888 126.144 15.8979 125.874 15.5247C125.606 15.1514 125.455 14.7179 125.42 14.2242H126.548C126.577 14.5651 126.692 14.8472 126.892 15.0706C127.095 15.291 127.35 15.4556 127.659 15.5643C127.97 15.6701 128.306 15.723 128.664 15.723C129.081 15.723 129.456 15.6554 129.788 15.5202C130.12 15.3821 130.383 15.1911 130.577 14.9472C130.771 14.7003 130.868 14.4123 130.868 14.0831C130.868 13.7834 130.784 13.5394 130.617 13.3513C130.449 13.1633 130.229 13.0105 129.956 12.8929C129.682 12.7753 129.387 12.6725 129.07 12.5843L127.959 12.2669C127.253 12.0641 126.695 11.7747 126.284 11.3985C125.872 11.0223 125.666 10.53 125.666 9.9217C125.666 9.41621 125.803 8.97535 126.076 8.59917C126.353 8.2201 126.723 7.92618 127.187 7.71754C127.655 7.50593 128.176 7.40012 128.752 7.40012C129.334 7.40012 129.851 7.50448 130.304 7.71312C130.757 7.91885 131.115 8.20098 131.38 8.55953C131.647 8.91804 131.788 9.32509 131.803 9.78063H130.745Z" fill="#FBF450"/>
</g>
<path d="M21.5382 96H169.957L185 106.776L7.99991 107L21.5382 96Z" fill="#ED7A33"/>
<rect x="9" y="106" width="176" height="18" fill="#BA5F2B"/>
<path d="M9 124H185L179.5 128.5H15.5L9 124Z" fill="#5E2F09"/>
<defs>
<clipPath id="clip0_0_1">
<rect width="62" height="62" fill="white" transform="translate(67 65)"/>
</clipPath>
<clipPath id="clip1_0_1">
<rect width="28" height="28" fill="white" transform="translate(40 31)"/>
</clipPath>
<clipPath id="clip2_0_1">
<rect width="24" height="24" fill="white" transform="translate(117)"/>
</clipPath>
</defs>
</svg>
